# File created by Blade
# Date/Time:  Mon Nov 15 14:44:42 2010
#---------------------------------------------------------
:version 1.10
:name HOM
:units
  mass 1.0
  length 1.000000
  angle deg
:documentation
     Acclaim Skeleton File
:root
   axis xyz
   order TX TY TZ RX RY RZ
   position 0.000000 0.000000 0.000000
   orientation 0 0 0
:bonedata
   begin
      id 1
      name LeftUpLeg_dum
      direction 1.000000 0.000000 0.000000
      length 4.719518
      axis 0.0 0.0 0.0 xyz
   end
   begin
      id 2
      name RightUpLeg_dum
      direction -1.000000 0.000000 0.000000
      length 4.719518
      axis 0.0 0.0 0.0 xyz
   end
   begin
      id 3
      name Spine_dum
      direction 0.000000 1.000000 0.000000
      length 0.039370
      axis 0.0 0.0 0.0 xyz
   end
   begin
      id 4
      name LeftUpLeg
      direction 0.000000 -1.000000 0.000000
      length 19.141694
      axis 0.0 0.0 0.0 xyz
      dof rx ry rz
   end
   begin
      id 5
      name LeftLeg
      direction 0.000000 -1.000000 0.000000
      length 19.555040
      axis 0.0 0.0 0.0 xyz
      dof rx ry rz
   end
   begin
      id 6
      name LeftFoot
      direction 0.000000 -0.258819 0.965926
      length 6.929396
      axis 15.0 0.0 0.0 xyz
      dof rx ry rz
   end
   begin
      id 7
      name LeftToeBase
      direction 0.000000 0.000000 1.000000
      length 2.952750
      axis 0.0 0.0 0.0 xyz
      dof rx ry rz
   end
   begin
      id 8
      name RightUpLeg
      direction 0.000000 -1.000000 0.000000
      length 19.141694
      axis 0.0 0.0 0.0 xyz
      dof rx ry rz
   end
   begin
      id 9
      name RightLeg
      direction 0.000000 -1.000000 0.000000
      length 19.555040
      axis 0.0 0.0 0.0 xyz
      dof rx ry rz
   end
   begin
      id 10
      name RightFoot
      direction 0.000000 -0.258819 0.965926
      length 6.929396
      axis 15.0 0.0 0.0 xyz
      dof rx ry rz
   end
   begin
      id 11
      name RightToeBase
      direction 0.000000 0.000000 1.000000
      length 2.952750
      axis 0.0 0.0 0.0 xyz
      dof rx ry rz
   end
   begin
      id 12
      name Spine
      direction 0.000000 1.000000 0.000000
      length 11.965764
      axis 0.0 0.0 0.0 xyz
      dof rx ry rz
   end
   begin
      id 13
      name Spine1
      direction 0.000000 1.000000 0.000000
      length 0.000000
      axis 0.0 0.0 0.0 xyz
      dof rx ry rz
   end
   begin
      id 14
      name Spine1_dum1
      direction 0.000000 1.000000 0.000000
      length 9.788721
      axis 0.0 0.0 0.0 xyz
   end
   begin
      id 15
      name Spine1_dum2
      direction 0.000000 1.000000 0.000000
      length 9.788721
      axis 0.0 0.0 0.0 xyz
   end
   begin
      id 16
      name Spine1_dum3
      direction 0.000000 1.000000 0.000000
      length 9.788721
      axis 0.0 0.0 0.0 xyz
   end
   begin
      id 17
      name Neck
      direction 0.000000 1.000000 0.000000
      length 7.029632
      axis 0.0 0.0 0.0 xyz
      dof rx ry rz
   end
   begin
      id 18
      name Head
      direction 0.000000 1.000000 0.000000
      length 4.527550
      axis 0.0 0.0 0.0 xyz
      dof rx ry rz
   end
   begin
      id 19
      name LeftShoulder
      direction 1.000000 -0.000004 0.000000
      length 9.320257
      axis 0.0 0.0 -90.0 xyz
      dof rx ry rz
   end
   begin
      id 20
      name LeftArm
      direction 1.000000 -0.000004 0.000000
      length 12.801352
      axis 0.0 0.0 -90.0 xyz
      dof rx ry rz
   end
   begin
      id 21
      name LeftForeArm
      direction 1.000000 -0.000004 0.000000
      length 11.278127
      axis 0.0 0.0 -90.0 xyz
      dof rx ry rz
   end
   begin
      id 22
      name LeftHand
      direction 0.000000 0.000000 0.000000
      length 0.000000
      axis 0.0 0.0 -90.0 xyz
      dof rx ry rz
   end
   begin
      id 23
      name LeftHand_dum1
      direction 0.000000 0.000000 0.000000
      length 0.000000
      axis 0.0 0.0 -90.0 xyz
   end
   begin
      id 24
      name LeftHand_dum2
      direction 1.000000 -0.000004 0.000000
      length 3.937000
      axis 0.0 0.0 -90.0 xyz
   end
   begin
      id 25
      name LeftHandThumb
      direction 0.000000 0.000000 1.000000
      length 3.937000
      axis 0.0 0.0 -90.0 xyz
      dof rx ry rz
   end
   begin
      id 26
      name RightShoulder
      direction -1.000000 -0.000004 0.000000
      length 9.320257
      axis 0.0 0.0 90.0 xyz
      dof rx ry rz
   end
   begin
      id 27
      name RightArm
      direction -1.000000 -0.000004 0.000000
      length 12.801352
      axis 0.0 0.0 90.0 xyz
      dof rx ry rz
   end
   begin
      id 28
      name RightForeArm
      direction -1.000000 -0.000004 0.000000
      length 11.278127
      axis 0.0 0.0 90.0 xyz
      dof rx ry rz
   end
   begin
      id 29
      name RightHand
      direction 0.000000 0.000000 0.000000
      length 0.000000
      axis 0.0 0.0 90.0 xyz
      dof rx ry rz
   end
   begin
      id 30
      name RightHand_dum1
      direction 0.000000 0.000000 0.000000
      length 0.000000
      axis 0.0 0.0 90.0 xyz
   end
   begin
      id 31
      name RightHand_dum2
      direction -1.000000 -0.000004 0.000000
      length 5.393690
      axis 0.0 0.0 90.0 xyz
   end
   begin
      id 32
      name RightHandThumb
      direction 0.000000 0.000000 1.000000
      length 3.937000
      axis 0.0 0.0 90.0 xyz
      dof rx ry rz
   end
:hierarchy
   begin
      root LeftUpLeg_dum RightUpLeg_dum Spine_dum
      LeftUpLeg_dum LeftUpLeg
      RightUpLeg_dum RightUpLeg
      Spine_dum Spine
      LeftUpLeg LeftLeg
      LeftLeg LeftFoot
      LeftFoot LeftToeBase
      RightUpLeg RightLeg
      RightLeg RightFoot
      RightFoot RightToeBase
      Spine Spine1
      Spine1 Spine1_dum1 Spine1_dum2 Spine1_dum3
      Spine1_dum1 Neck
      Spine1_dum2 LeftShoulder
      Spine1_dum3 RightShoulder
      Neck Head
      LeftShoulder LeftArm
      LeftArm LeftForeArm
      LeftForeArm LeftHand
      LeftHand LeftHand_dum1 LeftHand_dum2
      LeftHand_dum1 LeftHandThumb
      RightShoulder RightArm
      RightArm RightForeArm
      RightForeArm RightHand
      RightHand RightHand_dum1 RightHand_dum2
      RightHand_dum1 RightHandThumb
   end

# File created by Blade
# Date/Time:  Mon Nov 15 14:56:25 2010
# Frame Rate: 200.000 fps
#------------------------------------------------------
:FULLY-SPECIFIED
:DEGREES
256
root  7.818799 36.782261 -73.331620 -3.549050 7.581659 5.422880
LeftUpLeg  31.515666 8.306496 -2.639239
LeftLeg  -3.465989 0.000000 -0.000000
LeftFoot  -11.930802 0.123013 -1.369904
LeftToeBase  -18.383615 0.000000 -0.000000
RightUpLeg  -35.396304 -6.340573 -4.200751
RightLeg  35.174712 -0.000000 0.000000
RightFoot  -0.137160 -14.659973 -9.161121
RightToeBase  -31.401320 0.000000 -0.000000
Spine  11.783169 -5.884433 -4.914726
Spine1  4.118462 -5.498746 -2.422827
Neck  17.378352 -4.687223 0.933338
Head  -29.007118 -0.844648 7.377587
LeftShoulder  -6.352071 10.776448 3.171982
LeftArm  28.426342 26.800453 -67.218342
LeftForeArm  57.402288 -0.000000 -0.000000
LeftHand  -5.465158 5.942077 -11.907948
LeftHandThumb  0.000000 -0.000000 0.000000
RightShoulder  -16.759138 -13.615582 6.267285
RightArm  13.568302 -25.906941 73.812219
RightForeArm  26.954644 -0.000000 0.000000
RightHand  -6.564600 -5.464298 21.958069
RightHandThumb  0.000000 -0.000000 0.000000
257
root  7.776777 36.744929 -73.081510 -3.495763 7.732359 5.264556
LeftUpLeg  31.560332 8.305085 -2.267321
LeftLeg  -3.030997 0.000000 -0.000000
LeftFoot  -12.045064 0.045849 -1.328732
LeftToeBase  -18.530313 0.000000 -0.000000
RightUpLeg  -35.652594 -6.310361 -3.975832
RightLeg  36.211108 -0.000000 0.000000
RightFoot  -0.638133 -14.909630 -9.382779
RightToeBase  -31.173478 0.000000 -0.000000
Spine  11.889868 -5.913827 -4.890238
Spine1  4.011265 -5.501878 -2.115029
Neck  17.183504 -4.779610 0.955244
Head  -28.880078 -0.935628 7.237405
LeftShoulder  -6.296690 10.739397 3.271996
LeftArm  28.339015 26.593060 -67.413325
LeftForeArm  57.492518 -0.000000 -0.000000
LeftHand  -5.629474 6.340930 -11.732920
LeftHandThumb  0.000000 -0.000000 0.000000
RightShoulder  -16.747851 -13.555333 6.199510
RightArm  13.623261 -25.321445 73.807615
RightForeArm  26.675793 -0.000000 0.000000
RightHand  -6.346744 -5.065136 21.685657
RightHandThumb  0.000000 -0.000000 0.000000
258
root  7.727136 36.712305 -72.823708 -3.482808 7.854946 5.074423
LeftUpLeg  31.623810 8.250213 -1.870683
LeftLeg  -2.549021 0.000000 -0.000000
LeftFoot  -12.093692 -0.023157 -1.396051
LeftToeBase  -18.765084 0.000000 -0.000000
RightUpLeg  -35.811634 -6.167912 -3.730216
RightLeg  37.164934 -0.000000 0.000000
RightFoot  -1.154509 -15.210897 -9.484354
RightToeBase  -31.139480 0.000000 -0.000000
Spine  11.987386 -5.921315 -4.863669
Spine1  3.952789 -5.482159 -1.816536
Neck  16.999088 -4.904385 0.996258
Head  -28.776203 -0.999537 7.113304
LeftShoulder  -6.262437 10.651481 3.392318
LeftArm  28.222464 26.420785 -67.623032
LeftForeArm  57.467476 -0.000000 -0.000000
LeftHand  -5.698010 6.640229 -11.509360
LeftHandThumb  0.000000 -0.000000 0.000000
RightShoulder  -16.691168 -13.529445 6.178875
RightArm  13.712623 -24.701502 73.785914
RightForeArm  26.328836 -0.000000 0.000000
RightHand  -6.108116 -4.941003 21.464243
RightHandThumb  0.000000 -0.000000 0.000000
259
root  7.676275 36.684166 -72.561131 -3.470260 7.977574 4.884262
LeftUpLeg  31.686893 8.194907 -1.474162
LeftLeg  -2.067045 0.000000 -0.000000
LeftFoot  -12.142239 -0.092220 -1.463311
LeftToeBase  -18.999854 0.000000 -0.000000
RightUpLeg  -35.970017 -6.024787 -3.485065
RightLeg  38.118760 -0.000000 0.000000
RightFoot  -1.671077 -15.513037 -9.583255
RightToeBase  -31.105481 0.000000 -0.000000
Spine  12.084902 -5.928848 -4.837111
Spine1  3.894418 -5.462137 -1.518074
Neck  16.814548 -5.029027 1.037683
Head  -28.672188 -1.063221 6.989085
LeftShoulder  -6.228382 10.563495 3.512552
LeftArm  28.106789 26.248130 -67.832036
LeftForeArm  57.442434 -0.000000 -0.000000
LeftHand  -5.765412 6.939791 -11.286021
LeftHandThumb  0.000000 -0.000000 0.000000
RightShoulder  -16.634500 -13.503537 6.158270
RightArm  13.801290 -24.081528 73.765378
RightForeArm  25.981879 -0.000000 0.000000
RightHand  -5.870016 -4.815953 21.243391
RightHandThumb  0.000000 -0.000000 0.000000
260
root  7.631718 36.660760 -72.298412 -3.445914 8.115584 4.621173
LeftUpLeg  31.711816 8.057164 -1.053171
LeftLeg  -1.576265 0.000000 -0.000000
LeftFoot  -12.107494 -0.029153 -1.447355
LeftToeBase  -19.517851 0.000000 -0.000000
RightUpLeg  -36.043649 -5.847911 -3.200807
RightLeg  38.919952 -0.000000 0.000000
RightFoot  -2.198234 -15.861635 -9.572724
RightToeBase  -30.914871 0.000000 -0.000000
Spine  12.161029 -5.975946 -4.734339
Spine1  3.813961 -5.450588 -1.172972
Neck  16.708207 -5.030484 1.001656
Head  -28.710921 -1.202239 6.907573
LeftShoulder  -6.155302 10.551894 3.555183
LeftArm  27.906445 25.973460 -68.080543
LeftForeArm  57.460640 -0.000000 -0.000000
LeftHand  -6.019116 7.405365 -11.102307
LeftHandThumb  0.000000 -0.000000 0.000000
RightShoulder  -16.568784 -13.461817 6.066489
RightArm  13.876547 -23.481579 73.773308
RightForeArm  25.648753 -0.000000 0.000000
RightHand  -5.772601 -4.629606 21.011896
RightHandThumb  0.000000 -0.000000 0.000000
261
root  7.585889 36.641506 -72.028295 -3.422201 8.253703 4.358051
LeftUpLeg  31.735708 7.919244 -0.632381
LeftLeg  -1.085485 0.000000 -0.000000
LeftFoot  -12.072732 0.033904 -1.431360
LeftToeBase  -20.035848 0.000000 -0.000000
RightUpLeg  -36.116377 -5.670675 -2.916867
RightLeg  39.721145 -0.000000 0.000000
RightFoot  -2.726380 -16.210125 -9.558834
RightToeBase  -30.724262 0.000000 -0.000000
Spine  12.237077 -6.023180 -4.631621
Spine1  3.733577 -5.438558 -0.827894
Neck  16.601867 -5.032007 0.965632
Head  -28.749459 -1.341312 6.826151
LeftShoulder  -6.082233 10.540240 3.597797
LeftArm  27.707890 25.698015 -68.327406
LeftForeArm  57.478846 -0.000000 -0.000000
LeftHand  -6.271589 7.871740 -10.920475
LeftHandThumb  0.000000 -0.000000 0.000000
RightShoulder  -16.503148 -13.419995 5.974774
RightArm  13.951557 -22.881640 73.782058
RightForeArm  25.315627 -0.000000 0.000000
RightHand  -5.675967 -4.442867 20.780779
RightHandThumb  0.000000 -0.000000 0.000000
